<?xml version="1.0" encoding="UTF-8"?><svg xmlns="http://www.w3.org/2000/svg" viewBox="0 0 297.41 32.38"><defs><style>.d{fill:#d61428;}</style></defs><g id="a"/><g id="b"><g id="c"><g><path class="d" d="M0,0H23.76V6.36H7.23v7.35h14.7v6.28H7.23v12.4H0V0Z"/><path class="d" d="M44.78,0V25.99h16.17v6.4h-23.4V0h7.23Z"/><path class="d" d="M74.15,0h24.08V6.28h-16.85v6.6h15.46v6.28h-15.46v6.95h17.21v6.28h-24.44V0Z"/><path class="d" d="M122.89,16.05L112.51,0h8.58l6.52,10.57,6.72-10.57h8.22l-10.41,15.81,10.77,16.57h-8.46l-6.95-11.17-7.11,11.17h-8.23l10.73-16.33Z"/><path class="d" d="M200.68,0l-9.34,32.38h-7.31l-5.8-20.3-5.8,20.3h-7.31L155.78,0h7.75l5.56,21.18L174.65,0h7.51l5.52,21.1L193.28,0h7.39Z"/><path class="d" d="M222.36,0V32.38h-7.23V0h7.23Z"/><path class="d" d="M244.05,0V25.99h16.17v6.4h-23.4V0h7.23Z"/><path class="d" d="M281.24,0V25.99h16.17v6.4h-23.4V0h7.23Z"/></g></g></g></svg>